<?xml version='1.0' encoding='utf-8'?>
<svg xmlns="http://www.w3.org/2000/svg" width="1417.3px" height="283.46px" enable-background="new 0 0 1417.32 283.46" version="1.1" viewBox="0 0 1417.32 283.46">
	<g fill="#D8B955" stroke="#9B8640" stroke-width=".75">
			<path d="m1294 228.94s103.69 1.889 105.42-1.066c1.729-2.955-52.616-88.979-52.584-85.349 0.031 3.632 54.85-84.223 52.833-86.415s-105.42 1.067-105.42 1.067l-0.249 171.76z"/>
			<path d="m1313.9 209.08s-21.258 17.222-19.855 19.854"/>
			<path d="m126.28 226.51c-2.779 2.401-103.38 2.73-105.42-0.163-2.031-2.895 53.163-81.813 53.195-85.802s-53.33-83.398-52.223-85.964c1.106-2.568 105.42 0.161 105.42 0.161s1.806 169.37-0.972 171.77z"/>
			<line x1="106.56" x2="126.28" y1="206.83" y2="226.51"/>
		<path d="m1313.8 208.7c-2.701 3.145-1205.8 0.953-1207.3-1.87-1.494-2.823-1.901-169.03 0.971-171.77 2.871-2.737 1205.2-6e-3 1207.3 1.872 2.088 1.881 1.726 168.62-0.969 171.77z"/>
	</g>
		<radialGradient id="a" cx="698.32" cy="75.764" r="263.06" gradientTransform="matrix(1.6298 .0165 -.0116 1.0205 -426.59 27.248)" gradientUnits="userSpaceOnUse">
		<stop stop-color="#FFF6E3" offset="0"/>
		<stop stop-color="#FDF3DB" offset=".13"/>
		<stop stop-color="#F8EAC8" offset=".3209"/>
		<stop stop-color="#F0DCA8" offset=".5492"/>
		<stop stop-color="#E4C97C" offset=".8042"/>
		<stop stop-color="#D8B955" offset="1"/>
	</radialGradient>
	<path d="m107.99 36.56s214.16 161.81 621.15 158.49c406.99-3.314 584.98-157.59 584.98-157.59l-1206.1-0.901z" fill="url(#a)" fill-opacity=".5" opacity=".5"/>
</svg>